# xmcd
#
# Track frame offsets: 
#        150
#        13991
#        32339
#        49258
#        66268
#        81143
#        105634
#        120730
#        140242
#        157857
#
# Disc length: 2298 seconds
#
# Revision: 0
# Processed by: cddbd v1.5.2PL0 Copyright (c) Steve Scherf et al.
# Submitted via: ExactAudioCopy v0.95b4
#
DISCID=8308f80a
DTITLE=Ronnie St. Clair and Cary Lynn Rutledge - Great American Stories
DYEAR=2007
DGENRE=Bluegrass
TTITLE0=Blue Ridge (Nothing Like It Used To Be)
TTITLE1=D-Day Memorial
TTITLE2=Our Forefathers
TTITLE3=Virginia
TTITLE4=Beale Treasure Story
TTITLE5=First In Flight
TTITLE6=Old Family Farms
TTITLE7=Lewis and Clark
TTITLE8=Life Back In The 50's
TTITLE9=Ghost Rider Of Tillman
EXTD=
EXTT0=
EXTT1=
EXTT2=
EXTT3=
EXTT4=
EXTT5=
EXTT6=
EXTT7=
EXTT8=
EXTT9=
PLAYORDER=
